<?xml version="1.0" encoding="utf-8"?>
<!-- Generator: Adobe Illustrator 21.0.0, SVG Export Plug-In . SVG Version: 6.00 Build 0)  -->
<svg version="1.1" id="Layer_1" xmlns="http://www.w3.org/2000/svg" xmlns:xlink="http://www.w3.org/1999/xlink" x="0px" y="0px"
	 viewBox="0 0 357.6 38.3" style="enable-background:new 0 0 357.6 38.3;" xml:space="preserve">
<style type="text/css">
	.st0{fill:#231F20;}
	.st1{fill:#D9272E;}
	.st2{fill-rule:evenodd;clip-rule:evenodd;fill:#231F20;}
	.st3{fill-rule:evenodd;clip-rule:evenodd;fill:#95D600;}
	.st4{fill-rule:evenodd;clip-rule:evenodd;fill:#D9272E;}
	.st5{fill:#FFFFFF;}
</style>
<g>
	<path class="st0" d="M7.1,27.7l-3.3,5.9H0L15.5,7.4h4.3l15.6,26.3h-3.7l-3.4-5.9H7.1z M26.8,25.1L17.6,9.7L8.6,25.1"/>
	<path class="st0" d="M60.1,7.4c5.6,0,7.8,1.7,7.8,7.5c0,2-0.2,5.2-1.7,6.8c-1.6,1.7-4.2,1.7-6.3,1.7H41.5v10.3h-3.2V7.4H60.1z
		 M57.9,20.7c4.9,0,6.6-0.4,6.6-5.7c0-3.5-1.1-5-4.8-5H41.5v10.7H57.9z"/>
	<path class="st0" d="M95.2,7.4c5.6,0,7.8,1.7,7.8,7.5c0,2-0.2,5.2-1.7,6.8c-1.6,1.7-4.2,1.7-6.3,1.7H76.6v10.3h-3.2V7.4H95.2z
		 M93,20.7c4.9,0,6.6-0.4,6.6-5.7c0-3.5-1.1-5-4.8-5H76.6v10.7H93z"/>
	<path class="st0" d="M132.4,31v2.6h-23.9V7.4h3.2V31H132.4z"/>
	<path class="st0" d="M140.1,18.7h22v2.6h-22V31h23.1v2.6h-26.3V7.4h26v2.7h-22.8V18.7z"/>
	<path class="st0" d="M229.6,7.4c5.9,0,8.9,1.3,8.9,7.8c0,4.6-0.9,6-5.6,6.7c3,0.4,5.1,1.2,5.1,4.6v7.1h-3.1v-5.8
		c0-4.1-1.7-4.8-5.6-4.8h-17.9v10.6h-3.2V7.4H229.6z M229,20.4c4.5,0,6.2-0.9,6.2-5.4c0-4.4-2.3-4.9-6.3-4.9h-17.5v10.3H229z"/>
	<path class="st0" d="M244.6,12.8c1.1-4.6,4.6-5.5,8.8-5.6c3.9-0.1,7.8-0.1,11.6-0.1c10.9,0,12.8,1.7,12.8,12.4c0,2.4,0,4.7-0.3,7.1
		c-0.6,5-3,6.8-8,7.2c-2.2,0.2-4.3,0.2-6.5,0.2h-5.9c-1.9,0-3.7,0-5.6-0.2c-2.2-0.3-4.6-0.9-5.9-2.9c-1.6-2.6-1.6-7.1-1.6-10
		C244.1,18.1,244.1,15.4,244.6,12.8z M247.4,22.5c0,5.7,0.2,8.4,6.7,8.5l6.8,0.1h2.4c2.1,0,4.3,0,6.4-0.2c4.2-0.4,4.7-3,4.7-6.7
		c0-1.8,0.1-3.6,0.1-5.4c0-2.4-0.1-5.7-1.1-7.2c-0.4-0.6-1.2-1.1-1.9-1.3c-1.4-0.4-3-0.4-4.4-0.4l-6.2,0l-6.1,0.1
		c-5.7,0.1-7.2,0.7-7.3,6.7l-0.1,3.9V22.5z"/>
	<path class="st0" d="M315,25c0,6.4-0.9,8.7-8.7,8.9l-6.8,0.1c-1,0-1.9,0-2.9,0c-2,0-3.9-0.1-5.8-0.3c-4.6-0.5-6.7-2.9-7-7.5
		c-0.1-1.7-0.2-3.3-0.2-5c0-2.6,0-5.2,0.5-7.7c0.9-4.8,3.7-5.8,8.1-6.1c2.4-0.2,4.8-0.2,7.2-0.2c1.3,0,2.5,0,3.8,0
		c2.3,0,4.6,0.1,6.8,0.6c4.3,0.9,4.6,4.5,4.7,8.1h-3.2v-0.2c0-1.5,0-3.8-1.3-4.6c-1.5-1-5.9-1-8.9-1c-2.9,0-5.7,0-8.6,0.2
		c-4.5,0.4-5.2,1.1-5.6,5.5c-0.2,2.2-0.2,4.5-0.2,6.7c0,5.6,0,8.8,6.3,8.8c2,0,4.1,0.1,6.1,0.1l5.9-0.1c4.3-0.1,6.5-0.4,6.5-5V25
		H315z"/>
	<path class="st0" d="M329.1,18.7l17.3-11.3h5.4l-19.3,12.7l20.6,13.6h-5.7l-18.2-12.3h-4.6v12.3h-3.2V7.4h3.2v11.3H329.1z"/>
	<path class="st1" d="M185.4,17.1c5.2,0,9.4,4.2,9.4,9.4c0,1.6-0.4,3.1-1.1,4.4c3.7,0.6,6.9,1.6,9.6,2.7
		c-3.2-5.3-16.8-28.2-17.9-30.3c-1.2,2-14.6,24.9-17.7,30.2c2.6-1,5.7-2,9.4-2.6c-0.7-1.3-1.1-2.8-1.1-4.4
		C176,21.3,180.2,17.1,185.4,17.1z"/>
	<path class="st2" d="M205.4,34.5L185.4,0l-0.7,1.2l-19.3,33.3c-4.1,1.9-6.4,3.7-6.4,3.7s10.2-6,26.5-6c15.5,0,26.5,6,26.5,6
		S209.6,36.4,205.4,34.5z M185.4,3.3c1.2,2,14.8,24.9,17.9,30.3c-2.7-1.1-5.9-2.1-9.6-2.7c0.7-1.3,1.1-2.8,1.1-4.4
		c0-5.2-4.2-9.4-9.4-9.4c-5.2,0-9.4,4.2-9.4,9.4c0,1.6,0.4,3.1,1.1,4.4c-3.6,0.6-6.7,1.6-9.4,2.6C170.9,28.2,184.3,5.4,185.4,3.3z
		 M178.7,30.7c-0.7-1.2-1.2-2.6-1.2-4.2c0-4.4,3.6-7.9,7.9-7.9s7.9,3.6,7.9,7.9c0,1.5-0.4,2.9-1.2,4.2c-2.1-0.3-4.3-0.5-6.7-0.5
		C183.1,30.2,180.8,30.4,178.7,30.7z"/>
	<g>
		<path class="st3" d="M185.6,20.4c0,0-1-2.8,1.8-4.1c0.8-0.4,0.7-0.7,0.7-0.7S189.9,19.5,185.6,20.4z"/>
	</g>
	<g>
		<path class="st4" d="M190.9,23.9c-0.1-1.5-0.7-3.2-2.7-3.1c-0.9,0-1.8,0.6-2.2,0.6c0,0-0.1,0-0.1,0c-0.2-1.8-1-2.3-1.1-2.3
			c-0.1,0-0.2,0.2-0.3,0.4c-0.1,0.1,0.1,0.2,0.1,0.2c0.7,0.3,0.8,1,0.9,1.7c-0.3,0-1.2-0.5-2.2-0.6c-2.1-0.1-2.6,1.6-2.8,3.1
			c-0.3,3.9,2.7,7.5,4.3,6.6c0.2-0.1,0.5-0.2,0.8-0.2c0.3,0,0.7,0.1,0.8,0.2C188.1,31.4,191.2,27.8,190.9,23.9z"/>
	</g>
	<g>
		<path class="st5" d="M181.2,23.7c0.2-1.3,1.2-2.8,2.5-2.2c-1.5,0.6-1.9,2.2-2.1,3.8C180.9,24.6,181.2,23.7,181.2,23.7z"/>
	</g>
	<g>
		<path class="st0" d="M355.5,7.5c0.4,0,0.7,0.1,1,0.3c0.3,0.2,0.6,0.4,0.8,0.8c0.2,0.3,0.3,0.7,0.3,1.1c0,0.4-0.1,0.7-0.3,1.1
			c-0.2,0.3-0.4,0.6-0.8,0.8c-0.3,0.2-0.7,0.3-1.1,0.3c-0.4,0-0.7-0.1-1.1-0.3c-0.3-0.2-0.6-0.4-0.8-0.8c-0.2-0.3-0.3-0.7-0.3-1.1
			c0-0.4,0.1-0.7,0.3-1.1c0.2-0.3,0.5-0.6,0.8-0.8C354.8,7.6,355.1,7.5,355.5,7.5z M355.5,7.8c-0.3,0-0.6,0.1-0.9,0.2
			c-0.3,0.2-0.5,0.4-0.7,0.7c-0.2,0.3-0.2,0.6-0.2,0.9c0,0.3,0.1,0.6,0.2,0.9c0.2,0.3,0.4,0.5,0.7,0.7c0.3,0.2,0.6,0.2,0.9,0.2
			c0.3,0,0.6-0.1,0.9-0.2c0.3-0.2,0.5-0.4,0.7-0.7c0.2-0.3,0.2-0.6,0.2-0.9c0-0.3-0.1-0.6-0.2-0.9c-0.2-0.3-0.4-0.5-0.7-0.7
			C356.1,7.9,355.8,7.8,355.5,7.8z M354.6,10.8V8.5h0.8c0.3,0,0.5,0,0.6,0.1c0.1,0,0.2,0.1,0.3,0.2c0.1,0.1,0.1,0.2,0.1,0.3
			c0,0.2-0.1,0.3-0.2,0.4c-0.1,0.1-0.3,0.2-0.5,0.2c0.1,0,0.1,0.1,0.2,0.1c0.1,0.1,0.2,0.2,0.3,0.5l0.3,0.4H356l-0.2-0.4
			c-0.2-0.3-0.3-0.5-0.4-0.5c-0.1-0.1-0.2-0.1-0.3-0.1h-0.2v1H354.6z M354.9,9.5h0.4c0.2,0,0.4,0,0.4-0.1c0.1-0.1,0.1-0.1,0.1-0.3
			c0-0.1,0-0.1-0.1-0.2c0-0.1-0.1-0.1-0.2-0.1c-0.1,0-0.2,0-0.4,0h-0.4V9.5z"/>
	</g>
</g>
</svg>
